<?xml version="1.0" standalone="no"?>
<!DOCTYPE svg PUBLIC "-//W3C//DTD SVG 20010904//EN"
 "http://www.w3.org/TR/2001/REC-SVG-20010904/DTD/svg10.dtd">
<svg version="1.0" xmlns="http://www.w3.org/2000/svg"
 width="3655.000000pt" height="3413.000000pt" viewBox="0 0 3655.000000 3413.000000"
 preserveAspectRatio="xMidYMid meet">

<g transform="translate(0.000000,3413.000000) scale(0.100000,-0.100000)"
fill="#000000" stroke="none">
<path d="M32680 34109 c-1793 -30 -2454 -70 -3080 -185 -864 -159 -1457 -491
-1935 -1084 -170 -210 -356 -542 -459 -816 -149 -399 -244 -893 -286 -1484
-27 -381 -31 -587 -40 -1935 -22 -3416 -59 -4780 -166 -6115 -214 -2674 -730
-4763 -1599 -6475 -431 -849 -939 -1589 -1585 -2310 -184 -206 -619 -641 -825
-825 -360 -323 -765 -646 -942 -751 -821 -492 -1843 -982 -2777 -1330 -2944
-1100 -6157 -1340 -9206 -687 -2479 531 -4870 1645 -7030 3276 -952 719 -1856
1541 -2526 2298 -225 253 -215 246 -139 99 215 -414 533 -948 829 -1388 1357
-2022 3160 -3684 5266 -4852 1829 -1014 3884 -1635 5925 -1789 728 -56 1632
-59 2375 -11 1888 125 3684 574 5380 1347 2956 1348 5133 3267 6520 5748 646
1155 1162 2553 1498 4065 335 1502 524 3132 602 5195 36 953 70 3249 70 4745
0 1374 36 1922 154 2380 86 331 218 562 422 739 353 306 972 413 2629 456
1294 33 2817 37 3405 9 135 -6 349 -12 475 -13 215 -1 235 0 305 22 255 81
463 272 549 506 75 202 70 442 -12 628 -103 232 -321 416 -566 479 -215 55
-1760 83 -3231 58z"/>
<path d="M19750 31669 c-1249 -89 -2509 -695 -3555 -1711 l-132 -127 -6 337
c-4 185 -7 550 -7 810 l0 472 -887 -2 -888 -3 -3 -8702 -2 -8703 905 0 905 0
0 323 c0 177 -7 1663 -15 3302 -9 1759 -12 3229 -8 3588 l8 609 112 -129 c142
-164 430 -446 592 -582 520 -434 1100 -756 1721 -956 658 -211 1457 -278 2210
-184 969 121 1827 499 2611 1149 162 136 546 520 683 685 515 619 881 1279
1131 2040 204 620 297 1187 298 1830 1 328 -8 477 -49 785 -238 1781 -1295
3470 -2759 4407 -878 561 -1892 831 -2865 762z m530 -2198 c496 -74 911 -225
1332 -487 852 -528 1463 -1441 1653 -2468 47 -256 59 -401 59 -706 1 -468 -52
-805 -194 -1230 -412 -1240 -1419 -2156 -2645 -2404 -245 -50 -370 -61 -670
-61 -282 0 -354 6 -585 46 -1262 219 -2321 1170 -2738 2459 -119 368 -171 686
-179 1105 -6 300 7 489 51 746 281 1628 1564 2863 3136 3018 163 16 624 6 780
-18z"/>
<path d="M6429 31630 c-1471 -97 -2832 -883 -3829 -2211 -669 -892 -1109
-1983 -1234 -3059 -50 -428 -50 -921 0 -1340 81 -687 278 -1350 589 -1978 232
-470 476 -845 811 -1247 136 -164 490 -519 654 -657 738 -620 1544 -996 2450
-1142 331 -54 427 -61 855 -60 420 0 539 7 840 55 915 145 1736 534 2491 1180
141 120 424 405 539 541 49 59 92 105 95 102 3 -3 7 -375 10 -827 l5 -822 888
-3 887 -2 0 5620 0 5620 -890 0 -890 0 0 -752 c0 -414 -3 -777 -7 -806 l-6
-53 -131 128 c-309 302 -626 557 -991 798 -775 513 -1584 814 -2413 899 -187
20 -552 28 -723 16z m881 -2125 c1248 -161 2313 -997 2809 -2202 329 -804 378
-1712 135 -2552 -411 -1421 -1603 -2450 -3006 -2596 -291 -30 -690 -15 -957
36 -463 89 -862 249 -1251 504 -888 581 -1486 1555 -1624 2645 -39 303 -39
689 0 985 157 1220 872 2271 1917 2820 305 160 645 276 982 334 95 17 192 29
350 45 93 9 527 -3 645 -19z"/>
<path d="M6155 7259 c-730 -76 -1385 -346 -1947 -801 -142 -115 -407 -380
-519 -518 -438 -539 -699 -1145 -794 -1840 -22 -159 -31 -583 -16 -762 87
-1031 610 -1977 1438 -2600 542 -408 1190 -658 1863 -718 149 -13 493 -13 640
0 722 66 1369 327 1959 791 136 108 422 392 539 537 372 459 627 995 741 1560
58 284 65 367 65 732 0 365 -7 448 -65 732 -113 558 -362 1087 -725 1543 -113
141 -418 446 -559 559 -552 440 -1204 708 -1899 781 -157 16 -579 19 -721 4z
m690 -1559 c666 -115 1221 -523 1519 -1117 326 -647 296 -1412 -80 -2032 -201
-331 -499 -603 -855 -780 -944 -470 -2091 -162 -2672 719 -503 763 -452 1759
128 2475 293 362 731 627 1191 720 178 36 269 44 469 40 122 -2 218 -10 300
-25z"/>
<path d="M20880 7254 c-1133 -123 -2144 -772 -2732 -1754 -603 -1005 -679
-2249 -203 -3328 120 -272 300 -568 491 -807 114 -142 418 -447 559 -559 542
-431 1161 -689 1865 -778 162 -20 700 -17 860 5 838 118 1539 464 2120 1046
576 577 922 1283 1035 2111 22 158 30 560 16 735 -75 897 -462 1714 -1104
2331 -604 580 -1358 926 -2192 1004 -151 14 -563 11 -715 -6z m591 -1535 c423
-43 823 -211 1145 -482 355 -298 606 -722 699 -1180 151 -746 -119 -1527 -694
-2009 -562 -471 -1304 -617 -2001 -393 -131 42 -337 138 -457 213 -446 277
-780 729 -912 1232 -54 205 -66 303 -65 545 0 234 10 324 60 517 156 616 606
1144 1191 1395 326 140 691 198 1034 162z"/>
</g>
</svg>
